<svg width="512" height="512" viewBox="0 0 512 512" fill="none" xmlns="http://www.w3.org/2000/svg">
<path d="M256 0C397.385 0 512 114.615 512 256C512 355.299 455.463 441.393 372.823 483.85C372.428 483.553 372.016 483.253 371.585 482.948C370.179 481.991 368.779 481.024 367.385 480.048C366.611 479.504 365.86 478.975 365.108 478.447C362.518 476.639 359.95 474.809 357.404 472.936C356.435 472.213 355.494 471.512 354.553 470.812C352.658 469.403 350.763 467.993 348.869 466.582C343.785 462.762 339.109 458.963 333 457C333.613 460.225 334.147 463.397 334.287 466.682C334.463 472.681 334.894 478.552 336.449 484.361C338.214 487.938 338.215 487.938 345.096 491.178C347.044 492.081 348.829 492.966 350.524 493.981C340.618 497.92 330.408 501.258 319.938 503.95C320.516 480.838 317.013 457.327 303.737 439.216C294.453 431.406 293.464 422.602 292.235 411.183C292.014 409.11 291.778 407.039 291.53 404.97C290.862 399.529 290.217 394.086 289.607 388.639C288.853 381.892 288.061 375.15 287.258 368.409C286.626 363.114 285.989 357.82 285.385 352.522C285.268 351.491 285.154 350.489 285.041 349.487C284.825 347.609 284.609 345.729 284.394 343.851C284.041 340.645 284.436 336.337 282.084 334C281.014 334.16 279.974 334.316 278.936 334.472C266.651 336.657 254.809 336.566 242.461 335.195C238.827 334.756 235.205 334.347 231.56 334C230.22 335.332 230.219 335.332 229.47 341.299C229.31 342.635 229.31 342.635 229.153 343.945C228.918 345.844 228.682 347.742 228.447 349.641C228.068 352.757 227.688 355.874 227.302 358.989C226.191 367.888 225.089 376.788 223.998 385.688C223.318 391.243 222.634 396.798 221.94 402.352C221.676 404.461 221.413 406.571 221.15 408.681C220.783 411.722 220.417 414.764 220.036 417.804C219.917 418.751 219.8 419.672 219.685 420.592C219.111 425.476 218.741 429.033 215.921 433.237C214.468 434.561 213.021 435.893 211.621 437.272C195.943 455.032 193.58 481.502 194.056 504.453C183.274 501.774 172.763 498.411 162.57 494.414C163.525 493.861 164.566 493.34 165.717 492.809C168.54 491.594 171.263 490.335 173.963 488.871C179.759 483.566 179.759 483.566 181 457C178.328 457 178.328 457 173.604 460.396C168.664 464.006 163.699 467.583 158.651 471.045C157.553 471.791 156.487 472.515 155.421 473.239C153.257 474.715 151.093 476.19 148.928 477.664C147.334 478.735 147.333 478.735 145.771 479.784C144.754 480.479 143.768 481.154 142.782 481.828C141.693 482.564 140.661 483.318 139.659 484.098C56.7569 441.729 0 355.493 0 256C0 114.615 114.615 0 256 0ZM155.998 377.001C149.773 376.951 146.86 379.015 143.259 384.039C142.522 385.24 141.807 386.406 141.092 387.572C139.428 390.201 137.773 392.836 136.124 395.475C130.998 403.887 127.24 410.835 117.617 414.154C113.122 415.544 109.195 417.99 105.555 420.943C102.97 424.708 101.899 426.815 102.008 431.372C103.439 435.003 104.856 436.72 107.971 439.08C113.413 440.714 116.711 440.124 121.821 437.683C122.604 437.284 123.363 436.897 124.123 436.511C126.432 435.407 128.718 434.29 130.978 433.087C131.778 432.658 132.555 432.241 133.332 431.825C138.126 429.556 141.914 427.642 144.639 422.938C147.916 415.656 150.968 408.836 156.343 402.834C175.841 396.687 175.842 396.686 197.044 398.851C199.153 398.997 201.265 399.093 203.377 399.178C204.721 397.832 204.722 397.832 205.55 390.556C205.658 389.556 205.763 388.585 205.868 387.615C206.251 384.215 206.629 380.815 207 377.413C200.353 377.337 193.707 377.275 187.06 377.235C184.347 377.221 181.634 377.204 178.922 377.186C174.923 377.139 170.924 377.095 166.925 377.074C165.634 377.069 164.38 377.064 163.127 377.059C161.874 377.039 160.657 377.021 159.44 377.002C158.27 377.002 157.134 377.001 155.998 377.001ZM350.186 377.075C346.336 377.096 342.487 377.124 338.638 377.183C335.961 377.224 333.285 377.257 330.608 377.281C322.739 377.339 314.869 377.424 307 377.546C307.26 379.951 307.521 382.356 307.789 384.761C307.901 385.761 308.009 386.732 308.117 387.702C308.502 391.287 308.02 396.631 310.576 399.213C311.903 399.206 313.192 399.199 314.48 399.192C318.125 399.058 321.763 398.964 325.41 398.924C327.419 398.903 329.427 398.874 331.436 398.837C338.066 398.526 344.646 398.149 351.188 399.505C358.195 404.688 358.194 404.689 362.096 412.88C366.686 422.555 372.209 428.77 381.84 433.393C382.965 433.896 384.057 434.385 385.148 434.874C390.773 437.621 395.43 440.221 401.766 439.985C405.606 438.632 407.236 437.564 409.509 434.122C410.108 430.809 410.216 427.787 409.509 424.491C407.533 420.638 406.072 419.734 402.041 418.073C386.83 412.521 380.799 402.282 372.805 388.549C370.953 385.217 369.07 382.461 366.565 379.596C362.102 377.013 358.882 376.998 353.806 377C351.977 377.038 351.977 377.038 350.186 377.075ZM143.643 243C139.239 244.132 139.239 244.132 135.656 247.301C133.104 251.655 132.6 253.672 133.268 258.62C134.462 261.035 134.462 261.035 136.223 262.339C140.67 265.312 144.689 268.649 148.354 272.565C155.168 290.541 155.168 290.541 153.821 310.555C153.693 313.364 153.598 316.175 153.569 318.987C155.167 323.833 155.168 323.832 163.741 329.385C164.821 330.025 165.868 330.646 166.916 331.268C168.129 331.987 169.307 332.686 170.484 333.385C171.763 334.134 173.004 334.861 174.245 335.588C185.46 342.186 196.779 348.386 208.505 354C208.683 353.246 208.855 352.515 209.027 351.783C209.367 350.235 209.366 350.235 209.698 348.718C211.113 342.461 211.113 342.461 210.893 329.854C207.454 327.887 204.014 325.923 200.571 323.963C199.16 323.16 197.749 322.356 196.338 321.553C194.95 320.759 193.563 319.965 192.175 319.171C190.807 318.393 189.479 317.639 188.151 316.884C184.672 314.899 181.291 313.058 177.606 311.497C176.743 311.17 175.904 310.853 175.065 310.536C175.09 305.855 175.111 301.173 175.124 296.491C175.129 294.583 175.135 292.674 175.141 290.766C175.156 287.949 175.171 285.132 175.178 282.314C175.179 281.407 175.181 280.525 175.183 279.645C175.195 277.971 175.201 276.298 175.201 274.625C175.012 269.126 175.012 269.126 164.374 258.592C163.159 257.397 161.946 256.199 160.735 254.998C155.797 249.903 151.094 243.621 143.643 243ZM372.327 244.011C364.891 243.803 361.638 246.748 356.59 251.819L354.724 253.713C353.508 254.928 352.295 256.147 351.085 257.368C349.824 258.719 348.547 260.056 347.259 261.381C345.687 262.677 344.149 264.017 342.645 265.394C337.603 271.257 337.603 271.257 338.268 288.688C338.34 290.547 338.398 292.408 338.439 294.268C338.518 298.582 338.613 302.895 338.766 307.207C338.811 308.394 338.855 309.545 338.898 310.697C335.638 311.926 332.589 313.283 329.508 314.922C328.251 315.636 327.031 316.329 325.812 317.021C323.78 318.172 321.748 319.323 319.719 320.479C318.312 321.281 316.905 322.082 315.497 322.881C311.351 325.23 307.208 327.584 303.067 329.943C302.974 335.27 302.864 340.492 303.59 345.777C303.818 346.784 304.04 347.761 304.262 348.737C304.648 350.494 305.042 352.25 305.456 354C309.039 352.797 309.039 352.797 311.646 351.416C312.679 350.826 313.682 350.254 314.685 349.682C315.844 349.022 316.969 348.382 318.094 347.741C319.33 347.032 320.53 346.344 321.729 345.655C324.215 344.229 326.7 342.803 329.185 341.375C332.694 339.352 336.204 337.333 339.73 335.341C341.664 334.252 343.594 333.157 345.521 332.055C346.416 331.541 347.286 331.043 348.155 330.545C351.195 328.855 353.946 327.133 356.814 325.132C359.542 321.589 360.368 319.446 360.762 314.943C360.716 312.499 360.672 310.055 360.669 307.61C360.67 304.905 360.653 302.201 360.621 299.496C360.498 294.264 360.401 289.048 360.768 283.823C361.88 277.886 364.165 275.258 368.755 271.544C374.38 267.444 378.741 262.417 381 255.818C380.701 251.759 380.702 251.758 378.388 247.623C374.73 244.541 374.729 244.542 372.327 244.011ZM398.837 59C392.255 59.6155 392.254 59.6156 375.949 74.1475C374.976 75.027 374.976 75.0274 374.022 75.8896C370.891 78.706 368.021 81.307 365.901 85.0039C365.632 85.6875 365.371 86.3512 365.11 87.0146H362.714C359.755 89.5959 359.754 89.5958 348.81 102.999C347.964 104.037 347.963 104.037 347.135 105.055C330.503 125.417 312.683 148.143 303.635 173.097C303.35 174.088 303.073 175.051 302.797 176.014H300.399V173.608C294.25 160.702 287.467 149.161 276.433 139.933V172.406H235.689V139.933H234.491C224.85 149.122 217.144 160.301 212.654 172.913C212.338 173.967 212.03 174.991 211.723 176.014H209.326C209.326 173.304 209.326 173.304 205.797 166.861C205.265 165.91 204.749 164.986 204.233 164.062C194.562 146.729 184.109 130.086 172.042 114.329C170.886 112.844 169.733 111.355 168.583 109.865C163.155 102.517 157.347 95.855 150.933 89.3496C149.778 88.1979 148.658 87.0798 147.537 85.9619C138.152 76.5844 128.654 65.9646 117.054 59.3525C111.752 58.8281 109.178 59.2928 104.921 62.4346C102.674 65.3659 102.674 65.3661 102 70.1016C102.223 73.8947 102.58 74.8651 104.996 77.9941C107.14 79.7505 109.257 81.5435 111.297 83.4199C114.784 86.6371 118 89.8305 122.18 92.1113C122.882 92.4228 123.563 92.726 124.244 93.0283V95.4336C126.145 97.7234 127.841 99.0426 130.461 100.47C131.199 100.802 131.916 101.124 132.633 101.446C132.633 103.852 132.633 103.852 134.014 105.327C154.956 125.502 171.379 151.447 185.051 176.939C185.948 178.638 186.85 180.334 187.756 182.027C193.838 192.875 201.598 203.63 198.841 216.455C197.012 222.4 195.662 227.873 195.007 234.042C194.91 235.065 194.816 236.058 194.722 237.051C193.61 248.309 193.224 259.294 194.548 270.558C194.749 272.009 194.749 272.009 194.946 273.433C196.376 283.942 200.302 293.769 207.248 301.847C219.962 314.045 235.063 317.03 252.202 317C253.591 316.985 254.938 316.97 256.286 316.955C259 316.954 261.713 316.946 264.427 316.932C280.482 316.64 293.672 312.762 305.249 301.01C316.511 287.533 318.994 269.517 318.521 252.357C318.471 251.345 318.423 250.362 318.375 249.379C318.168 243.078 317.81 236.863 316.553 230.672C314.04 219.214 309.763 207.941 316.282 197.268C317.923 194.747 319.225 192.414 320.505 189.714C332.984 163.284 348.935 136.906 368.63 115.277C371.135 112.617 373.244 110.33 375.001 107.122C375.305 106.419 375.6 105.737 375.896 105.055H378.292C380.947 102.723 382.866 100.64 384.583 97.5381C385.037 96.4753 385.037 96.475 385.481 95.4336H387.879V93.0283C390.275 93.0283 390.275 93.0275 393.182 90.6084C394.358 89.5143 395.5 88.4526 396.642 87.3906C397.808 86.3124 398.94 85.2652 400.072 84.2188C401.223 83.1246 402.34 82.063 403.457 81.001C406.851 77.9097 406.85 77.9094 409.448 74.9873C410.43 70.9062 410.142 66.758 408.25 62.96C405.031 60.5601 402.85 59.4133 398.837 59Z" fill="#D9D9D9"/>
</svg>
